<mxfile host="app.diagrams.net" modified="2021-11-20T02:11:20.940Z" agent="5.0 (Windows)" etag="H-oPQXL_a99SJV9GKdAB" version="15.5.8" type="github">
  <diagram id="R2lEEEUBdFMjLlhIrx00" name="Page-1">
    <mxGraphModel dx="1038" dy="495" grid="1" gridSize="10" guides="1" tooltips="1" connect="1" arrows="1" fold="1" page="1" pageScale="1" pageWidth="850" pageHeight="1100" math="0" shadow="0" extFonts="Permanent Marker^https://fonts.googleapis.com/css?family=Permanent+Marker">
      <root>
        <mxCell id="0" />
        <mxCell id="1" parent="0" />
        <mxCell id="eXmscqqiGGVaxo4QSgg4-1" value="Animal" style="whiteSpace=wrap;html=1;align=center;" vertex="1" parent="1">
          <mxGeometry x="180" y="120" width="100" height="40" as="geometry" />
        </mxCell>
        <mxCell id="eXmscqqiGGVaxo4QSgg4-2" value="Barn" style="whiteSpace=wrap;html=1;align=center;" vertex="1" parent="1">
          <mxGeometry x="560" y="120" width="100" height="40" as="geometry" />
        </mxCell>
        <mxCell id="eXmscqqiGGVaxo4QSgg4-3" value="Employee" style="whiteSpace=wrap;html=1;align=center;" vertex="1" parent="1">
          <mxGeometry x="560" y="360" width="100" height="40" as="geometry" />
        </mxCell>
        <mxCell id="eXmscqqiGGVaxo4QSgg4-4" value="Equipment" style="whiteSpace=wrap;html=1;align=center;" vertex="1" parent="1">
          <mxGeometry x="180" y="360" width="100" height="40" as="geometry" />
        </mxCell>
        <mxCell id="eXmscqqiGGVaxo4QSgg4-35" style="edgeStyle=orthogonalEdgeStyle;rounded=0;orthogonalLoop=1;jettySize=auto;html=1;exitX=0.5;exitY=1;exitDx=0;exitDy=0;entryX=0.4;entryY=0;entryDx=0;entryDy=0;entryPerimeter=0;" edge="1" parent="1" source="eXmscqqiGGVaxo4QSgg4-6" target="eXmscqqiGGVaxo4QSgg4-1">
          <mxGeometry relative="1" as="geometry">
            <Array as="points">
              <mxPoint x="220" y="60" />
            </Array>
          </mxGeometry>
        </mxCell>
        <mxCell id="eXmscqqiGGVaxo4QSgg4-6" value="Breed" style="ellipse;whiteSpace=wrap;html=1;align=center;" vertex="1" parent="1">
          <mxGeometry x="70" y="20" width="100" height="40" as="geometry" />
        </mxCell>
        <mxCell id="eXmscqqiGGVaxo4QSgg4-37" style="edgeStyle=orthogonalEdgeStyle;rounded=0;orthogonalLoop=1;jettySize=auto;html=1;exitX=1;exitY=0.5;exitDx=0;exitDy=0;entryX=0;entryY=0.25;entryDx=0;entryDy=0;" edge="1" parent="1" source="eXmscqqiGGVaxo4QSgg4-8" target="eXmscqqiGGVaxo4QSgg4-1">
          <mxGeometry relative="1" as="geometry">
            <mxPoint x="170" y="130" as="targetPoint" />
            <Array as="points">
              <mxPoint x="130" y="130" />
            </Array>
          </mxGeometry>
        </mxCell>
        <mxCell id="eXmscqqiGGVaxo4QSgg4-8" value="TagNumber" style="ellipse;whiteSpace=wrap;html=1;align=center;fontStyle=4;" vertex="1" parent="1">
          <mxGeometry x="30" y="130" width="100" height="40" as="geometry" />
        </mxCell>
        <mxCell id="eXmscqqiGGVaxo4QSgg4-33" style="edgeStyle=orthogonalEdgeStyle;rounded=0;orthogonalLoop=1;jettySize=auto;html=1;exitX=0.5;exitY=1;exitDx=0;exitDy=0;entryX=0.5;entryY=0;entryDx=0;entryDy=0;" edge="1" parent="1" source="eXmscqqiGGVaxo4QSgg4-9" target="eXmscqqiGGVaxo4QSgg4-1">
          <mxGeometry relative="1" as="geometry" />
        </mxCell>
        <mxCell id="eXmscqqiGGVaxo4QSgg4-9" value="Age" style="ellipse;whiteSpace=wrap;html=1;align=center;" vertex="1" parent="1">
          <mxGeometry x="180" y="10" width="100" height="40" as="geometry" />
        </mxCell>
        <mxCell id="eXmscqqiGGVaxo4QSgg4-34" style="edgeStyle=orthogonalEdgeStyle;rounded=0;orthogonalLoop=1;jettySize=auto;html=1;exitX=0.5;exitY=1;exitDx=0;exitDy=0;entryX=0.75;entryY=0;entryDx=0;entryDy=0;" edge="1" parent="1" source="eXmscqqiGGVaxo4QSgg4-10" target="eXmscqqiGGVaxo4QSgg4-1">
          <mxGeometry relative="1" as="geometry" />
        </mxCell>
        <mxCell id="eXmscqqiGGVaxo4QSgg4-10" value="Medication" style="ellipse;whiteSpace=wrap;html=1;align=center;" vertex="1" parent="1">
          <mxGeometry x="290" y="20" width="100" height="40" as="geometry" />
        </mxCell>
        <mxCell id="eXmscqqiGGVaxo4QSgg4-36" style="edgeStyle=orthogonalEdgeStyle;rounded=0;orthogonalLoop=1;jettySize=auto;html=1;exitX=0.5;exitY=1;exitDx=0;exitDy=0;entryX=0.25;entryY=0;entryDx=0;entryDy=0;" edge="1" parent="1" source="eXmscqqiGGVaxo4QSgg4-11" target="eXmscqqiGGVaxo4QSgg4-1">
          <mxGeometry relative="1" as="geometry">
            <Array as="points">
              <mxPoint x="205" y="110" />
            </Array>
          </mxGeometry>
        </mxCell>
        <mxCell id="eXmscqqiGGVaxo4QSgg4-11" value="Status" style="ellipse;whiteSpace=wrap;html=1;align=center;" vertex="1" parent="1">
          <mxGeometry x="30" y="70" width="100" height="40" as="geometry" />
        </mxCell>
        <mxCell id="eXmscqqiGGVaxo4QSgg4-12" style="edgeStyle=orthogonalEdgeStyle;rounded=0;orthogonalLoop=1;jettySize=auto;html=1;exitX=0.5;exitY=1;exitDx=0;exitDy=0;" edge="1" parent="1" source="eXmscqqiGGVaxo4QSgg4-6" target="eXmscqqiGGVaxo4QSgg4-6">
          <mxGeometry relative="1" as="geometry" />
        </mxCell>
        <mxCell id="eXmscqqiGGVaxo4QSgg4-56" style="edgeStyle=none;rounded=0;orthogonalLoop=1;jettySize=auto;html=1;exitX=0.5;exitY=1;exitDx=0;exitDy=0;entryX=0.44;entryY=-0.025;entryDx=0;entryDy=0;entryPerimeter=0;" edge="1" parent="1" source="eXmscqqiGGVaxo4QSgg4-13" target="eXmscqqiGGVaxo4QSgg4-2">
          <mxGeometry relative="1" as="geometry" />
        </mxCell>
        <mxCell id="eXmscqqiGGVaxo4QSgg4-13" value="Capacity" style="ellipse;whiteSpace=wrap;html=1;align=center;" vertex="1" parent="1">
          <mxGeometry x="510" y="10" width="100" height="40" as="geometry" />
        </mxCell>
        <mxCell id="eXmscqqiGGVaxo4QSgg4-54" style="edgeStyle=none;rounded=0;orthogonalLoop=1;jettySize=auto;html=1;exitX=0;exitY=0.5;exitDx=0;exitDy=0;entryX=1;entryY=0;entryDx=0;entryDy=0;" edge="1" parent="1" source="eXmscqqiGGVaxo4QSgg4-14" target="eXmscqqiGGVaxo4QSgg4-2">
          <mxGeometry relative="1" as="geometry" />
        </mxCell>
        <mxCell id="eXmscqqiGGVaxo4QSgg4-14" value="Location" style="ellipse;whiteSpace=wrap;html=1;align=center;fontStyle=4;" vertex="1" parent="1">
          <mxGeometry x="720" y="40" width="100" height="40" as="geometry" />
        </mxCell>
        <mxCell id="eXmscqqiGGVaxo4QSgg4-55" style="edgeStyle=none;rounded=0;orthogonalLoop=1;jettySize=auto;html=1;exitX=0.5;exitY=1;exitDx=0;exitDy=0;entryX=0.75;entryY=0;entryDx=0;entryDy=0;" edge="1" parent="1" source="eXmscqqiGGVaxo4QSgg4-15" target="eXmscqqiGGVaxo4QSgg4-2">
          <mxGeometry relative="1" as="geometry" />
        </mxCell>
        <mxCell id="eXmscqqiGGVaxo4QSgg4-15" value="Use" style="ellipse;whiteSpace=wrap;html=1;align=center;" vertex="1" parent="1">
          <mxGeometry x="620" y="10" width="100" height="40" as="geometry" />
        </mxCell>
        <mxCell id="eXmscqqiGGVaxo4QSgg4-53" style="edgeStyle=none;rounded=0;orthogonalLoop=1;jettySize=auto;html=1;exitX=0;exitY=0.5;exitDx=0;exitDy=0;entryX=1;entryY=0.5;entryDx=0;entryDy=0;" edge="1" parent="1" source="eXmscqqiGGVaxo4QSgg4-16" target="eXmscqqiGGVaxo4QSgg4-2">
          <mxGeometry relative="1" as="geometry" />
        </mxCell>
        <mxCell id="eXmscqqiGGVaxo4QSgg4-16" value="Manager" style="ellipse;whiteSpace=wrap;html=1;align=center;" vertex="1" parent="1">
          <mxGeometry x="720" y="100" width="100" height="40" as="geometry" />
        </mxCell>
        <mxCell id="eXmscqqiGGVaxo4QSgg4-50" style="edgeStyle=none;rounded=0;orthogonalLoop=1;jettySize=auto;html=1;exitX=0;exitY=0.5;exitDx=0;exitDy=0;entryX=1;entryY=1;entryDx=0;entryDy=0;" edge="1" parent="1" source="eXmscqqiGGVaxo4QSgg4-17" target="eXmscqqiGGVaxo4QSgg4-3">
          <mxGeometry relative="1" as="geometry" />
        </mxCell>
        <mxCell id="eXmscqqiGGVaxo4QSgg4-17" value="Lname" style="ellipse;whiteSpace=wrap;html=1;align=center;" vertex="1" parent="1">
          <mxGeometry x="690" y="400" width="100" height="40" as="geometry" />
        </mxCell>
        <mxCell id="eXmscqqiGGVaxo4QSgg4-51" style="edgeStyle=none;rounded=0;orthogonalLoop=1;jettySize=auto;html=1;exitX=0;exitY=0.5;exitDx=0;exitDy=0;entryX=1;entryY=0.25;entryDx=0;entryDy=0;" edge="1" parent="1" source="eXmscqqiGGVaxo4QSgg4-18" target="eXmscqqiGGVaxo4QSgg4-3">
          <mxGeometry relative="1" as="geometry" />
        </mxCell>
        <mxCell id="eXmscqqiGGVaxo4QSgg4-18" value="Fname" style="ellipse;whiteSpace=wrap;html=1;align=center;" vertex="1" parent="1">
          <mxGeometry x="700" y="350" width="100" height="40" as="geometry" />
        </mxCell>
        <mxCell id="eXmscqqiGGVaxo4QSgg4-49" style="edgeStyle=none;rounded=0;orthogonalLoop=1;jettySize=auto;html=1;exitX=0.5;exitY=0;exitDx=0;exitDy=0;entryX=0.61;entryY=1.05;entryDx=0;entryDy=0;entryPerimeter=0;" edge="1" parent="1" source="eXmscqqiGGVaxo4QSgg4-20" target="eXmscqqiGGVaxo4QSgg4-3">
          <mxGeometry relative="1" as="geometry" />
        </mxCell>
        <mxCell id="eXmscqqiGGVaxo4QSgg4-20" value="Salary" style="ellipse;whiteSpace=wrap;html=1;align=center;" vertex="1" parent="1">
          <mxGeometry x="640" y="450" width="100" height="40" as="geometry" />
        </mxCell>
        <mxCell id="eXmscqqiGGVaxo4QSgg4-48" style="edgeStyle=none;rounded=0;orthogonalLoop=1;jettySize=auto;html=1;exitX=0.5;exitY=0;exitDx=0;exitDy=0;entryX=0.25;entryY=1;entryDx=0;entryDy=0;" edge="1" parent="1" source="eXmscqqiGGVaxo4QSgg4-22" target="eXmscqqiGGVaxo4QSgg4-3">
          <mxGeometry relative="1" as="geometry" />
        </mxCell>
        <mxCell id="eXmscqqiGGVaxo4QSgg4-22" value="JobTitle" style="ellipse;whiteSpace=wrap;html=1;align=center;fontStyle=4;" vertex="1" parent="1">
          <mxGeometry x="540" y="470" width="100" height="40" as="geometry" />
        </mxCell>
        <mxCell id="eXmscqqiGGVaxo4QSgg4-40" style="edgeStyle=orthogonalEdgeStyle;rounded=0;orthogonalLoop=1;jettySize=auto;html=1;exitX=1;exitY=0.5;exitDx=0;exitDy=0;" edge="1" parent="1" source="eXmscqqiGGVaxo4QSgg4-24">
          <mxGeometry relative="1" as="geometry">
            <mxPoint x="190" y="400" as="targetPoint" />
            <Array as="points">
              <mxPoint x="140" y="410" />
              <mxPoint x="190" y="410" />
            </Array>
          </mxGeometry>
        </mxCell>
        <mxCell id="eXmscqqiGGVaxo4QSgg4-24" value="Location" style="ellipse;whiteSpace=wrap;html=1;align=center;" vertex="1" parent="1">
          <mxGeometry x="40" y="430" width="100" height="40" as="geometry" />
        </mxCell>
        <mxCell id="eXmscqqiGGVaxo4QSgg4-38" style="edgeStyle=orthogonalEdgeStyle;rounded=0;orthogonalLoop=1;jettySize=auto;html=1;exitX=1;exitY=0.5;exitDx=0;exitDy=0;entryX=0;entryY=0.75;entryDx=0;entryDy=0;" edge="1" parent="1" source="eXmscqqiGGVaxo4QSgg4-25" target="eXmscqqiGGVaxo4QSgg4-1">
          <mxGeometry relative="1" as="geometry">
            <Array as="points">
              <mxPoint x="160" y="150" />
            </Array>
          </mxGeometry>
        </mxCell>
        <mxCell id="eXmscqqiGGVaxo4QSgg4-25" value="Location " style="ellipse;whiteSpace=wrap;html=1;align=center;" vertex="1" parent="1">
          <mxGeometry x="60" y="180" width="100" height="40" as="geometry" />
        </mxCell>
        <mxCell id="eXmscqqiGGVaxo4QSgg4-44" style="edgeStyle=orthogonalEdgeStyle;rounded=0;orthogonalLoop=1;jettySize=auto;html=1;exitX=0.5;exitY=0;exitDx=0;exitDy=0;entryX=0.14;entryY=1.1;entryDx=0;entryDy=0;entryPerimeter=0;" edge="1" parent="1" source="eXmscqqiGGVaxo4QSgg4-26" target="eXmscqqiGGVaxo4QSgg4-3">
          <mxGeometry relative="1" as="geometry">
            <Array as="points">
              <mxPoint x="490" y="420" />
              <mxPoint x="574" y="420" />
            </Array>
          </mxGeometry>
        </mxCell>
        <mxCell id="eXmscqqiGGVaxo4QSgg4-26" value="WorkLocation" style="ellipse;whiteSpace=wrap;html=1;align=center;" vertex="1" parent="1">
          <mxGeometry x="440" y="430" width="100" height="40" as="geometry" />
        </mxCell>
        <mxCell id="eXmscqqiGGVaxo4QSgg4-57" style="edgeStyle=none;rounded=0;orthogonalLoop=1;jettySize=auto;html=1;exitX=0.5;exitY=1;exitDx=0;exitDy=0;entryX=0;entryY=0;entryDx=0;entryDy=0;" edge="1" parent="1" source="eXmscqqiGGVaxo4QSgg4-27" target="eXmscqqiGGVaxo4QSgg4-2">
          <mxGeometry relative="1" as="geometry" />
        </mxCell>
        <mxCell id="eXmscqqiGGVaxo4QSgg4-27" value="CurrentAnimals" style="ellipse;whiteSpace=wrap;html=1;align=center;" vertex="1" parent="1">
          <mxGeometry x="440" y="60" width="100" height="40" as="geometry" />
        </mxCell>
        <mxCell id="eXmscqqiGGVaxo4QSgg4-52" style="edgeStyle=none;rounded=0;orthogonalLoop=1;jettySize=auto;html=1;exitX=0;exitY=0.5;exitDx=0;exitDy=0;entryX=1;entryY=0.75;entryDx=0;entryDy=0;" edge="1" parent="1" source="eXmscqqiGGVaxo4QSgg4-28" target="eXmscqqiGGVaxo4QSgg4-2">
          <mxGeometry relative="1" as="geometry" />
        </mxCell>
        <mxCell id="eXmscqqiGGVaxo4QSgg4-28" value="EquipmentPresent" style="ellipse;whiteSpace=wrap;html=1;align=center;" vertex="1" parent="1">
          <mxGeometry x="720" y="170" width="100" height="40" as="geometry" />
        </mxCell>
        <mxCell id="eXmscqqiGGVaxo4QSgg4-41" style="edgeStyle=orthogonalEdgeStyle;rounded=0;orthogonalLoop=1;jettySize=auto;html=1;exitX=0.5;exitY=0;exitDx=0;exitDy=0;entryX=0.25;entryY=1;entryDx=0;entryDy=0;" edge="1" parent="1" source="eXmscqqiGGVaxo4QSgg4-29" target="eXmscqqiGGVaxo4QSgg4-4">
          <mxGeometry relative="1" as="geometry" />
        </mxCell>
        <mxCell id="eXmscqqiGGVaxo4QSgg4-29" value="Status" style="ellipse;whiteSpace=wrap;html=1;align=center;" vertex="1" parent="1">
          <mxGeometry x="100" y="470" width="100" height="40" as="geometry" />
        </mxCell>
        <mxCell id="eXmscqqiGGVaxo4QSgg4-42" style="edgeStyle=orthogonalEdgeStyle;rounded=0;orthogonalLoop=1;jettySize=auto;html=1;exitX=0.5;exitY=0;exitDx=0;exitDy=0;entryX=0.58;entryY=1.075;entryDx=0;entryDy=0;entryPerimeter=0;" edge="1" parent="1" source="eXmscqqiGGVaxo4QSgg4-30" target="eXmscqqiGGVaxo4QSgg4-4">
          <mxGeometry relative="1" as="geometry" />
        </mxCell>
        <mxCell id="eXmscqqiGGVaxo4QSgg4-30" value="Cost" style="ellipse;whiteSpace=wrap;html=1;align=center;" vertex="1" parent="1">
          <mxGeometry x="200" y="480" width="100" height="40" as="geometry" />
        </mxCell>
        <mxCell id="eXmscqqiGGVaxo4QSgg4-39" style="edgeStyle=orthogonalEdgeStyle;rounded=0;orthogonalLoop=1;jettySize=auto;html=1;exitX=1;exitY=0.5;exitDx=0;exitDy=0;entryX=0;entryY=0.75;entryDx=0;entryDy=0;" edge="1" parent="1" source="eXmscqqiGGVaxo4QSgg4-31" target="eXmscqqiGGVaxo4QSgg4-4">
          <mxGeometry relative="1" as="geometry" />
        </mxCell>
        <mxCell id="eXmscqqiGGVaxo4QSgg4-31" value="ID" style="ellipse;whiteSpace=wrap;html=1;align=center;fontStyle=4;" vertex="1" parent="1">
          <mxGeometry x="40" y="370" width="100" height="40" as="geometry" />
        </mxCell>
        <mxCell id="eXmscqqiGGVaxo4QSgg4-43" style="edgeStyle=orthogonalEdgeStyle;rounded=0;orthogonalLoop=1;jettySize=auto;html=1;exitX=0.5;exitY=0;exitDx=0;exitDy=0;entryX=0.75;entryY=1;entryDx=0;entryDy=0;" edge="1" parent="1" source="eXmscqqiGGVaxo4QSgg4-32" target="eXmscqqiGGVaxo4QSgg4-4">
          <mxGeometry relative="1" as="geometry">
            <Array as="points">
              <mxPoint x="340" y="430" />
              <mxPoint x="255" y="430" />
            </Array>
          </mxGeometry>
        </mxCell>
        <mxCell id="eXmscqqiGGVaxo4QSgg4-32" value="Status" style="ellipse;whiteSpace=wrap;html=1;align=center;" vertex="1" parent="1">
          <mxGeometry x="290" y="440" width="100" height="40" as="geometry" />
        </mxCell>
      </root>
    </mxGraphModel>
  </diagram>
</mxfile>
